#N canvas 571 28 706 670 10;
#X obj 365 119 shell;
#X obj 132 277 textfile;
#X msg 105 166 read daily.txt cr \, rewind;
#X msg 181 204 read daily.txt cr;
#X msg 365 96 /Users/fredd/Documents/torrefaro/grabdata.sh;
#X obj 365 145 print;
#X obj 108 245 bng 15 250 50 0 empty empty empty 17 7 0 10 -262144
-1 -1;
#X msg 65 245 print;
#X obj 133 312 list-unpack 15 -------------------;
#X floatatom 146 398 5 0 0 0 wind_deg. - -;
#X floatatom 185 399 5 0 0 3 speed - -;
#X floatatom 224 399 5 0 0 3 gust - -;
#X floatatom 145 449 5 0 0 0 humidity - -;
#X floatatom 180 472 5 0 0 0 temp - -;
#X floatatom 372 385 5 0 0 1 tot.rain - -;
#X floatatom 253 528 5 0 0 0 Uv - -;
#X floatatom 293 529 5 0 0 3 SolarWind - -;
#X floatatom 227 472 5 0 0 3 chill - -;
#X floatatom 265 473 5 0 0 3 Heat - -;
#X floatatom 307 473 5 0 0 3 DewPoint - -;
#X floatatom 353 574 5 0 0 0 Barom - -;
#X floatatom 369 348 5 0 0 3 HourRain - -;
#X floatatom 433 346 5 0 0 3 RainRate - -;
#X symbolatom 92 344 10 0 0 0 - - -;
#X obj 105 145 bng 15 250 50 0 empty empty empty 17 7 0 10 -262144
-1 -1;
#X obj 106 50 metro 60000;
#X obj 104 26 tgl 15 0 empty empty empty 17 7 0 10 -262144 -1 -1 1
1;
#X text 443 119 shell script: #/bin/bash curl http://torrefarometeo.altervista.org/daily.txt
| tail -n 3 > daily.txt;
#X text 58 346 time;
#X text 295 241;
#X text 346 411;
#X text 126 26 every 60 seconds do:;
#X obj 514 392 moses 1.5;
#X obj 522 503 print;
#X msg 515 420 no rain;
#X obj 572 420 moses 4;
#X msg 572 443 rain;
#X obj 617 445 moses 10;
#X msg 617 472 heavy rain;
#X msg 660 497 emergency;
#X obj 170 610 tabwrite;
#X connect 0 0 5 0;
#X connect 1 0 8 0;
#X connect 2 0 1 0;
#X connect 3 0 1 0;
#X connect 4 0 0 0;
#X connect 6 0 1 0;
#X connect 7 0 1 0;
#X connect 8 0 23 0;
#X connect 8 1 9 0;
#X connect 8 2 10 0;
#X connect 8 3 11 0;
#X connect 8 4 12 0;
#X connect 8 5 13 0;
#X connect 8 6 14 0;
#X connect 8 7 15 0;
#X connect 8 8 16 0;
#X connect 8 9 17 0;
#X connect 8 10 18 0;
#X connect 8 11 19 0;
#X connect 8 12 20 0;
#X connect 8 13 21 0;
#X connect 8 14 22 0;
#X connect 21 0 32 0;
#X connect 24 0 2 0;
#X connect 25 0 24 0;
#X connect 25 0 4 0;
#X connect 26 0 25 0;
#X connect 32 0 34 0;
#X connect 32 1 35 0;
#X connect 34 0 33 0;
#X connect 35 0 36 0;
#X connect 35 1 37 0;
#X connect 36 0 33 0;
#X connect 37 0 38 0;
#X connect 37 1 39 0;
#X connect 38 0 33 0;
#X connect 39 0 33 0;
