#N canvas 529 172 499 353 10;
#X obj 13 66 textfile;
#X obj 19 43 bng 15 250 50 0 empty empty empty 17 7 0 10 -262144 -1
-1;
#X obj 9 210 unpack s f f f f f f f f f f f f f f f;
#X symbolatom 9 232 10 0 0 0 - - -, f 10;
#X floatatom 24 249 5 0 0 0 - - -, f 5;
#X obj 36 123 f;
#X obj 36 145 + 1;
#X msg 58 103 0;
#X obj 9 94 t a b;
#X obj 9 190 spigot;
#X obj 68 66 t b;
#X obj 42 168 > 3;
#X floatatom 39 269 5 0 0 0 - - -, f 5;
#X floatatom 54 290 5 0 0 0 - - -, f 5;
#X floatatom 69 309 5 0 0 0 - - -, f 5;
#X obj 110 103 shell;
#X msg 13 10 read daily.txt cr \, rewind;
#X obj 110 125 print;
#X msg 110 56 /Users/alessandro/Desktop/testshellscript.sh;
#X msg 53 30 read daily.txt cr;
#X connect 0 0 8 0;
#X connect 0 1 7 0;
#X connect 1 0 0 0;
#X connect 2 0 3 0;
#X connect 2 1 4 0;
#X connect 2 2 12 0;
#X connect 2 3 13 0;
#X connect 2 4 14 0;
#X connect 5 0 6 0;
#X connect 6 0 5 1;
#X connect 6 0 11 0;
#X connect 7 0 5 1;
#X connect 8 0 9 0;
#X connect 8 1 5 0;
#X connect 9 0 2 0;
#X connect 10 0 7 0;
#X connect 11 0 9 1;
#X connect 15 0 17 0;
#X connect 16 0 0 0;
#X connect 16 0 10 0;
#X connect 18 0 15 0;
#X connect 19 0 0 0;
